HIERARCHY
ROOT Pelvis
{
	OFFSET 0.000000 0.000000 0.000000
	CHANNELS 6 Xposition Yposition Zposition Xrotation Yrotation Zrotation
	JOINT LeftUpLeg_virtual
	{
		OFFSET 0.000000 0.000000 0.000000
		CHANNELS 3 Xrotation Yrotation Zrotation
		JOINT LeftUpLeg
		{
			OFFSET 8.479700 -4.795502 -0.379100
			CHANNELS 3 Xrotation Yrotation Zrotation
			JOINT LeftLeg
			{
				OFFSET 0.024144 -32.555107 0.112900
				CHANNELS 3 Xrotation Yrotation Zrotation
				JOINT LeftFoot
				{
					OFFSET -0.024144 -32.638630 -3.012600
					CHANNELS 3 Xrotation Yrotation Zrotation
					JOINT LeftToeBase
					{
						OFFSET 0.970200 -13.225400 11.864200
						CHANNELS 3 Xrotation Yrotation Zrotation
						End Site
						{
							OFFSET 0 0 0
						}
					}
				}
			}
		}
	}
	JOINT RightUpLeg_virtual
	{
		OFFSET 0.000000 0.000000 0.000000
		CHANNELS 3 Xrotation Yrotation Zrotation
		JOINT RightUpLeg
		{
			OFFSET -8.479700 -4.795502 -0.379100
			CHANNELS 3 Xrotation Yrotation Zrotation
			JOINT RightLeg
			{
				OFFSET -0.023144 -32.555092 0.112900
				CHANNELS 3 Xrotation Yrotation Zrotation
				JOINT RightFoot
				{
					OFFSET 0.023144 -32.638641 -3.012700
					CHANNELS 3 Xrotation Yrotation Zrotation
					JOINT RightToeBase
					{
						OFFSET -0.970200 -13.225400 11.864200
						CHANNELS 3 Xrotation Yrotation Zrotation
						End Site
						{
							OFFSET 0 0 0
						}
					}
				}
			}
		}
	}
	JOINT Hips_virtual
	{
		OFFSET 0.000000 0.000000 0.000000
		CHANNELS 3 Xrotation Yrotation Zrotation
		JOINT Hips
		{
			OFFSET -0.000000 -0.000000 -0.000000
			CHANNELS 3 Xrotation Yrotation Zrotation
			JOINT Spine
			{
				OFFSET 0.000000 7.722000 1.166200
				CHANNELS 3 Xrotation Yrotation Zrotation
				JOINT Spine1
				{
					OFFSET 0.000000 12.024101 0.248800
					CHANNELS 3 Xrotation Yrotation Zrotation
					JOINT Spine2
					{
						OFFSET 0.000000 11.502998 -0.491200
						CHANNELS 3 Xrotation Yrotation Zrotation
						JOINT Neck_virtual
						{
							OFFSET 0.000000 0.000000 0.000000
							CHANNELS 3 Xrotation Yrotation Zrotation
							JOINT Neck
							{
								OFFSET 0.000000 18.430702 -3.123100
								CHANNELS 3 Xrotation Yrotation Zrotation
								JOINT Head
								{
									OFFSET 0.000000 9.051102 1.034000
									CHANNELS 3 Xrotation Yrotation Zrotation
									End Site
									{
										OFFSET 0 0 0
									}
								}
							}
						}
						JOINT LeftShoulder_virtual
						{
							OFFSET 0.000000 0.000000 0.000000
							CHANNELS 3 Xrotation Yrotation Zrotation
							JOINT LeftShoulder
							{
								OFFSET 6.197800 13.665199 -4.064700
								CHANNELS 3 Xrotation Yrotation Zrotation
								JOINT LeftArm
								{
									OFFSET 7.778100 -0.187103 -1.709300
									CHANNELS 3 Xrotation Yrotation Zrotation
									JOINT LeftForeArm
									{
										OFFSET 22.049376 0.000000 0.000000
										CHANNELS 3 Xrotation Yrotation Zrotation
										JOINT LeftHand
										{
											OFFSET 23.009392 0.000000 0.000000
											CHANNELS 3 Xrotation Yrotation Zrotation
											End Site
											{
												OFFSET 0 0 0
											}
										}
									}
								}
							}
						}
						JOINT RightShoulder_virtual
						{
							OFFSET 0.000000 0.000000 0.000000
							CHANNELS 3 Xrotation Yrotation Zrotation
							JOINT RightShoulder
							{
								OFFSET -6.197800 13.665199 -4.064700
								CHANNELS 3 Xrotation Yrotation Zrotation
								JOINT RightArm
								{
									OFFSET -7.778100 -0.187103 -1.709300
									CHANNELS 3 Xrotation Yrotation Zrotation
									JOINT RightForeArm
									{
										OFFSET -22.049376 0.000000 0.000000
										CHANNELS 3 Xrotation Yrotation Zrotation
										JOINT RightHand
										{
											OFFSET -23.009392 0.000000 0.000000
											CHANNELS 3 Xrotation Yrotation Zrotation
											End Site
											{
												OFFSET 0 0 0
											}
										}
									}
								}
							}
						}
					}
				}
			}
		}
	}
}
MOTION
Frames: 8
Frame Time: 0.03333333
2.065687 77.313843 0.211290 0.000000 0.000000 0.000000 5.958595 -82.302673 8.225699 -25.963421 29.724150 28.061443 25.906786 -8.253043 1.025961 -3.277575 3.761001 -16.291729 0.000000 0.000000 0.000000 5.958595 -82.302673 8.225699 -24.240799 -9.250869 -24.904447 19.511014 3.098711 -4.198130 -0.092059 8.891918 21.636690 0.000000 0.000000 0.000000 5.958595 -82.302673 8.225699 0.000000 0.000000 0.000000 7.181006 -5.615923 -4.735451 3.180251 -8.412485 -0.457312 0.000000 0.000000 0.000000 3.240268 -8.382695 -0.141388 -11.954769 7.249588 7.049804 0.000000 0.000000 0.000000 3.240268 -8.382695 -0.141388 4.998831 3.199398 13.148475 -41.287148 14.474967 -0.764741 0.404866 -12.304735 -0.189202 0.000000 0.000000 0.000000 3.240268 -8.382695 -0.141388 -0.697215 3.176120 -19.419915 -43.720393 41.405945 39.746206 179.763708 44.834858 -178.942309 0.000000 0.000000 0.000000 
2.028571 77.313637 0.209358 0.000000 0.000000 0.000000 5.857175 -82.224761 8.144769 -25.908900 29.699285 28.015384 25.867871 -8.287312 1.021384 -3.274719 3.763047 -16.299541 0.000000 0.000000 0.000000 5.857175 -82.224761 8.144769 -24.182524 -9.202211 -24.923464 19.578508 2.994818 -4.213681 -0.173797 8.861481 21.671178 0.000000 0.000000 0.000000 5.857175 -82.224761 8.144769 0.000000 0.000000 0.000000 7.165859 -5.650499 -4.771757 3.193035 -8.441189 -0.434103 0.000000 0.000000 0.000000 3.256760 -8.414382 -0.119541 -11.939446 7.256019 7.066639 0.000000 0.000000 0.000000 3.256760 -8.414382 -0.119541 4.942455 3.372610 13.150519 -41.216790 14.374471 -0.890731 0.408200 -12.293967 -0.188318 0.000000 0.000000 0.000000 3.256760 -8.414382 -0.119541 -0.667742 3.236926 -19.377592 -43.532501 41.170526 39.610982 179.791766 44.675386 -178.975804 0.000000 0.000000 0.000000 
1.991607 77.313232 0.207434 0.000000 0.000000 0.000000 5.759624 -82.147696 8.067544 -25.855929 29.675594 27.970509 25.830114 -8.322787 1.016870 -3.272395 3.765401 -16.306978 0.000000 0.000000 0.000000 5.759624 -82.147696 8.067544 -24.125336 -9.153273 -24.942343 19.646985 2.888441 -4.229245 -0.255865 8.834101 21.705815 0.000000 0.000000 0.000000 5.759624 -82.147696 8.067544 0.000000 0.000001 0.000000 7.151644 -5.683446 -4.811263 3.205281 -8.468312 -0.412649 0.000000 0.000000 0.000000 3.272584 -8.444015 -0.099793 -11.924545 7.262637 7.083634 0.000000 0.000000 0.000000 3.272584 -8.444015 -0.099793 4.890249 3.523470 13.153895 -41.149837 14.283762 -0.998569 0.411577 -12.283002 -0.187457 0.000000 0.000000 0.000000 3.272584 -8.444015 -0.099793 -0.637572 3.300941 -19.333494 -43.321551 40.922593 39.468969 179.817666 44.506045 -179.006131 0.000000 0.000000 0.000000 
1.954846 77.312599 0.205496 0.000000 0.000000 0.000000 5.665325 -82.071048 7.993545 -25.804632 29.652921 27.926945 25.793815 -8.375405 1.011050 -3.270681 3.783751 -16.311880 0.000000 0.000000 0.000000 5.665325 -82.071048 7.993545 -24.068905 -9.104534 -24.961138 19.715549 2.782059 -4.244666 -0.337642 8.807553 21.740374 0.000000 0.000000 0.000000 5.665325 -82.071048 7.993545 0.000000 0.000000 0.000000 7.138283 -5.717138 -4.850573 3.217084 -8.497975 -0.386805 0.000000 0.000000 0.000000 3.288893 -8.475685 -0.075523 -11.909488 7.269112 7.100596 0.000000 0.000000 0.000000 3.288893 -8.475685 -0.075523 4.841601 3.655645 13.158283 -41.084066 14.218012 -1.098237 0.414891 -12.271950 -0.186578 0.000000 0.000000 0.000000 3.288893 -8.475685 -0.075523 -0.606757 3.367926 -19.287857 -43.123338 40.675020 39.333007 179.850970 44.352038 -179.040445 0.000000 0.000000 0.000000 
1.918321 77.311638 0.203556 0.000000 0.000000 0.000000 5.573324 -81.995308 7.921763 -25.755424 29.631024 27.885260 25.759601 -8.405350 1.006955 -3.269884 3.778562 -16.319736 0.000000 0.000000 0.000000 5.573324 -81.995308 7.921763 -24.014149 -9.055654 -24.979861 19.786214 2.678803 -4.259873 -0.419767 8.779008 21.774570 0.000000 0.000000 0.000000 5.573324 -81.995308 7.921763 0.000000 0.000000 0.000000 7.125553 -5.754150 -4.888567 3.228218 -8.534268 -0.354375 0.000000 0.000000 0.000000 3.305731 -8.512881 -0.044381 -11.894716 7.275369 7.117887 0.000000 0.000000 0.000000 3.305731 -8.512881 -0.044381 4.794459 3.779254 13.163260 -41.016577 14.181515 -1.195729 0.418198 -12.262821 -0.185710 0.000000 0.000000 0.000000 3.305731 -8.512881 -0.044381 -0.575560 3.437850 -19.240785 -42.945917 40.427866 39.210839 179.896432 44.215329 -179.080060 0.000000 0.000000 0.000000 
1.882072 77.310364 0.201605 0.000000 0.000000 0.000000 5.484436 -81.920367 7.853106 -25.708359 29.610349 27.845056 25.727359 -8.447674 1.002030 -3.269727 3.784764 -16.325641 0.000000 0.000000 0.000000 5.484436 -81.920367 7.853106 -23.960701 -9.006669 -24.998544 19.858000 2.574641 -4.275108 -0.502238 8.752507 21.808777 0.000000 0.000000 0.000000 5.484436 -81.920367 7.853106 0.000000 0.000001 0.000000 7.115745 -5.784367 -4.933095 3.238116 -8.558126 -0.333728 0.000000 0.000000 0.000000 3.319801 -8.538074 -0.025669 -11.879792 7.281531 7.134542 0.000000 0.000000 0.000000 3.319801 -8.538074 -0.025669 4.748877 3.895334 13.168654 -40.954730 14.107577 -1.279137 0.421498 -12.251558 -0.184834 0.000000 0.000000 0.000000 3.319801 -8.538074 -0.025669 -0.544067 3.510622 -19.192394 -42.738471 40.179476 39.071278 179.924135 44.064836 -179.112681 0.000000 0.000000 0.000000 
1.846133 77.308998 0.199636 0.000000 0.000000 0.000000 5.397865 -81.846519 7.786795 -25.662143 29.591122 27.805775 25.695513 -8.490721 0.997087 -3.269758 3.790969 -16.331279 0.000000 0.000000 0.000000 5.397865 -81.846519 7.786795 -23.908164 -8.957968 -25.017074 19.929592 2.470239 -4.290327 -0.584143 8.727796 21.842860 0.000000 0.000000 0.000000 5.397865 -81.846519 7.786795 0.000000 0.000000 0.000000 7.108291 -5.817721 -4.976215 3.246983 -8.586481 -0.308148 0.000000 0.000000 0.000000 3.333877 -8.567131 -0.001620 -11.864857 7.287634 7.151445 0.000000 0.000000 0.000000 3.333877 -8.567131 -0.001620 4.704779 4.005075 13.174372 -40.891755 14.055760 -1.361425 0.424849 -12.240817 -0.183969 0.000000 0.000000 0.000000 3.333877 -8.567131 -0.001620 -0.512518 3.586121 -19.142819 -42.536376 39.924590 38.937478 179.953874 43.917181 -179.143691 0.000000 0.000000 0.000000 
1.810547 77.307358 0.197657 0.000000 0.000000 0.000000 5.312822 -81.773593 7.722050 -25.617664 29.572947 27.767834 25.665693 -8.544906 0.991343 -3.270579 3.807387 -16.335111 0.000000 0.000000 0.000000 5.312822 -81.773593 7.722050 -23.856912 -8.909598 -25.035616 20.001816 2.366668 -4.305633 -0.665708 8.703706 21.876830 0.000000 0.000000 0.000000 5.312822 -81.773593 7.722050 0.000000 0.000000 0.000000 7.101946 -5.850108 -5.019310 3.254755 -8.617325 -0.281633 0.000000 0.000000 0.000000 3.347247 -8.598091 0.023612 -11.850003 7.294201 7.168453 0.000000 0.000000 0.000000 3.347247 -8.598091 0.023612 4.662223 4.109568 13.180288 -40.829419 14.012738 -1.439119 0.428142 -12.230650 -0.183094 0.000000 0.000000 0.000000 3.347247 -8.598091 0.023612 -0.481056 3.664323 -19.092208 -42.338393 39.669506 38.806871 179.991331 43.776451 -179.179412 0.000000 0.000000 0.000000 
